ISO-10303-21;
HEADER;
FILE_DESCRIPTION(('STEP AP214'),'1');
FILE_NAME('IND_BOURNS_SRR1210','2025-02-14T05:56:24',(''),(''),'','','');
FILE_SCHEMA(('AUTOMOTIVE_DESIGN'));
ENDSEC;
DATA;
#1=SHAPE_DEFINITION_REPRESENTATION(#2,#3);
#2=PRODUCT_DEFINITION_SHAPE('',$,#4);
#3=SHAPE_REPRESENTATION('',(#188,#485,#1156,#1729,#19),#11);
#4=PRODUCT_DEFINITION('design','example product_definition',#6,#5);
#5=PRODUCT_DEFINITION_CONTEXT('3D Mechanical Parts',#10,'design');
#6=PRODUCT_DEFINITION_FORMATION('1.0','first version',#8);
#7=APPLICATION_PROTOCOL_DEFINITION('international standard','automotive_design',2003,#10);
#8=PRODUCT('product','part','',(#9));
#9=PRODUCT_CONTEXT('3D Mechanical Parts',#10,'mechanical');
#10=APPLICATION_CONTEXT('Core Data for Automotive Mechanical Design Process');
#11=(GEOMETRIC_REPRESENTATION_CONTEXT(3) GLOBAL_UNCERTAINTY_ASSIGNED_CONTEXT((#12)) GLOBAL_UNIT_ASSIGNED_CONTEXT((#13,#14,#18)) REPRESENTATION_CONTEXT('ID1','3D'));
#12=UNCERTAINTY_MEASURE_WITH_UNIT(LENGTH_MEASURE(1.E-005),#13,'DISTANCE_ACCURACY_VALUE','Maximum model space distance between geometric entities at asserted connectivities');
#13=(LENGTH_UNIT() NAMED_UNIT(*) SI_UNIT(.MILLI.,.METRE.));
#14=(CONVERSION_BASED_UNIT('degree',#16) NAMED_UNIT(#15) PLANE_ANGLE_UNIT());
#15=DIMENSIONAL_EXPONENTS(0.,0.,0.,0.,0.,0.,0.);
#16=MEASURE_WITH_UNIT(PLANE_ANGLE_MEASURE(0.01745329252),#17);
#17=(NAMED_UNIT(*) PLANE_ANGLE_UNIT() SI_UNIT($,.RADIAN.));
#18=(NAMED_UNIT(*) SI_UNIT($,.STERADIAN.) SOLID_ANGLE_UNIT());
#19=AXIS2_PLACEMENT_3D('',#20,#21,#22);
#20=CARTESIAN_POINT('',(0.0,0.0,0.0));
#21=DIRECTION('',(0.0,0.0,1.0));
#22=DIRECTION('',(1.0,0.0,0.0));
#25=MECHANICAL_DESIGN_GEOMETRIC_PRESENTATION_REPRESENTATION($,(#190,#239,#288,#337,#386,#435,#487,#536,#585,#634,#683,#752,#821,#890,#959,#1008,#1057,#1106,#1158,#1207,#1256,#1305,#1354,#1403,#1452,#1501,#1550,#1639,#1731,#1780,#1829,#1878,#1927,#1976,#2025,#2074,#2123,#2212),#11);
#26=PRODUCT_CATEGORY_RELATIONSHIP('','',#27,#28);
#27=PRODUCT_CATEGORY('part','');
#28=PRODUCT_RELATED_PRODUCT_CATEGORY('','',(#8));
#34=PRESENTATION_STYLE_ASSIGNMENT((#35,#40));
#35=SURFACE_STYLE_USAGE(.BOTH.,#36);
#36=SURFACE_SIDE_STYLE('',(#37));
#37=SURFACE_STYLE_FILL_AREA(#38);
#38=FILL_AREA_STYLE('',(#39));
#39=FILL_AREA_STYLE_COLOUR('',#41);
#40=CURVE_STYLE('',#42,POSITIVE_LENGTH_MEASURE(0.1),#41);
#41=COLOUR_RGB('Aluminum',0.725,0.725,0.725);
#42=DRAUGHTING_PRE_DEFINED_CURVE_FONT('continuous');
#43=PRESENTATION_STYLE_ASSIGNMENT((#44,#49));
#44=SURFACE_STYLE_USAGE(.BOTH.,#45);
#45=SURFACE_SIDE_STYLE('',(#46));
#46=SURFACE_STYLE_FILL_AREA(#47);
#47=FILL_AREA_STYLE('',(#48));
#48=FILL_AREA_STYLE_COLOUR('',#50);
#49=CURVE_STYLE('',#51,POSITIVE_LENGTH_MEASURE(0.1),#50);
#50=COLOUR_RGB('Black',0.196,0.196,0.196);
#51=DRAUGHTING_PRE_DEFINED_CURVE_FONT('continuous');
#52=PRESENTATION_STYLE_ASSIGNMENT((#53,#58));
#53=SURFACE_STYLE_USAGE(.BOTH.,#54);
#54=SURFACE_SIDE_STYLE('',(#55));
#55=SURFACE_STYLE_FILL_AREA(#56);
#56=FILL_AREA_STYLE('',(#57));
#57=FILL_AREA_STYLE_COLOUR('',#59);
#58=CURVE_STYLE('',#60,POSITIVE_LENGTH_MEASURE(0.1),#59);
#59=COLOUR_RGB('Pin1Wrap',0.98,0.706,0.176);
#60=DRAUGHTING_PRE_DEFINED_CURVE_FONT('continuous');
#61=PRESENTATION_STYLE_ASSIGNMENT((#62,#67));
#62=SURFACE_STYLE_USAGE(.BOTH.,#63);
#63=SURFACE_SIDE_STYLE('',(#64));
#64=SURFACE_STYLE_FILL_AREA(#65);
#65=FILL_AREA_STYLE('',(#66));
#66=FILL_AREA_STYLE_COLOUR('',#68);
#67=CURVE_STYLE('',#69,POSITIVE_LENGTH_MEASURE(0.1),#68);
#68=COLOUR_RGB('HeatTab',0.588,0.588,0.588);
#69=DRAUGHTING_PRE_DEFINED_CURVE_FONT('continuous');
#70=PRESENTATION_STYLE_ASSIGNMENT((#71,#76));
#71=SURFACE_STYLE_USAGE(.BOTH.,#72);
#72=SURFACE_SIDE_STYLE('',(#73));
#73=SURFACE_STYLE_FILL_AREA(#74);
#74=FILL_AREA_STYLE('',(#75));
#75=FILL_AREA_STYLE_COLOUR('',#77);
#76=CURVE_STYLE('',#78,POSITIVE_LENGTH_MEASURE(0.1),#77);
#77=COLOUR_RGB('Gold',0.843,0.686,0.0);
#78=DRAUGHTING_PRE_DEFINED_CURVE_FONT('continuous');
#79=PRESENTATION_STYLE_ASSIGNMENT((#80,#85));
#80=SURFACE_STYLE_USAGE(.BOTH.,#81);
#81=SURFACE_SIDE_STYLE('',(#82));
#82=SURFACE_STYLE_FILL_AREA(#83);
#83=FILL_AREA_STYLE('',(#84));
#84=FILL_AREA_STYLE_COLOUR('',#86);
#85=CURVE_STYLE('',#87,POSITIVE_LENGTH_MEASURE(0.1),#86);
#86=COLOUR_RGB('Brown',0.459,0.345,0.176);
#87=DRAUGHTING_PRE_DEFINED_CURVE_FONT('continuous');
#88=PRESENTATION_STYLE_ASSIGNMENT((#89,#94));
#89=SURFACE_STYLE_USAGE(.BOTH.,#90);
#90=SURFACE_SIDE_STYLE('',(#91));
#91=SURFACE_STYLE_FILL_AREA(#92);
#92=FILL_AREA_STYLE('',(#93));
#93=FILL_AREA_STYLE_COLOUR('',#95);
#94=CURVE_STYLE('',#96,POSITIVE_LENGTH_MEASURE(0.1),#95);
#95=COLOUR_RGB('Tan',0.784,0.686,0.51);
#96=DRAUGHTING_PRE_DEFINED_CURVE_FONT('continuous');
#97=PRESENTATION_STYLE_ASSIGNMENT((#98,#103));
#98=SURFACE_STYLE_USAGE(.BOTH.,#99);
#99=SURFACE_SIDE_STYLE('',(#100));
#100=SURFACE_STYLE_FILL_AREA(#101);
#101=FILL_AREA_STYLE('',(#102));
#102=FILL_AREA_STYLE_COLOUR('',#104);
#103=CURVE_STYLE('',#105,POSITIVE_LENGTH_MEASURE(0.1),#104);
#104=COLOUR_RGB('Gray',0.431,0.431,0.431);
#105=DRAUGHTING_PRE_DEFINED_CURVE_FONT('continuous');
#106=PRESENTATION_STYLE_ASSIGNMENT((#107,#112));
#107=SURFACE_STYLE_USAGE(.BOTH.,#108);
#108=SURFACE_SIDE_STYLE('',(#109));
#109=SURFACE_STYLE_FILL_AREA(#110);
#110=FILL_AREA_STYLE('',(#111));
#111=FILL_AREA_STYLE_COLOUR('',#113);
#112=CURVE_STYLE('',#114,POSITIVE_LENGTH_MEASURE(0.1),#113);
#113=COLOUR_RGB('Red',0.6,0.0,0.0);
#114=DRAUGHTING_PRE_DEFINED_CURVE_FONT('continuous');
#115=PRESENTATION_STYLE_ASSIGNMENT((#116,#121));
#116=SURFACE_STYLE_USAGE(.BOTH.,#117);
#117=SURFACE_SIDE_STYLE('',(#118));
#118=SURFACE_STYLE_FILL_AREA(#119);
#119=FILL_AREA_STYLE('',(#120));
#120=FILL_AREA_STYLE_COLOUR('',#122);
#121=CURVE_STYLE('',#123,POSITIVE_LENGTH_MEASURE(0.1),#122);
#122=COLOUR_RGB('Blue',0.157,0.157,0.588);
#123=DRAUGHTING_PRE_DEFINED_CURVE_FONT('continuous');
#124=PRESENTATION_STYLE_ASSIGNMENT((#125,#130));
#125=SURFACE_STYLE_USAGE(.BOTH.,#126);
#126=SURFACE_SIDE_STYLE('',(#127));
#127=SURFACE_STYLE_FILL_AREA(#128);
#128=FILL_AREA_STYLE('',(#129));
#129=FILL_AREA_STYLE_COLOUR('',#131);
#130=CURVE_STYLE('',#132,POSITIVE_LENGTH_MEASURE(0.1),#131);
#131=COLOUR_RGB('Maroon',0.294,0.0,0.0);
#132=DRAUGHTING_PRE_DEFINED_CURVE_FONT('continuous');
#133=PRESENTATION_STYLE_ASSIGNMENT((#134,#139));
#134=SURFACE_STYLE_USAGE(.BOTH.,#135);
#135=SURFACE_SIDE_STYLE('',(#136));
#136=SURFACE_STYLE_FILL_AREA(#137);
#137=FILL_AREA_STYLE('',(#138));
#138=FILL_AREA_STYLE_COLOUR('',#140);
#139=CURVE_STYLE('',#141,POSITIVE_LENGTH_MEASURE(0.1),#140);
#140=COLOUR_RGB('Green',0.0,0.294,0.0);
#141=DRAUGHTING_PRE_DEFINED_CURVE_FONT('continuous');
#142=PRESENTATION_STYLE_ASSIGNMENT((#143,#148));
#143=SURFACE_STYLE_USAGE(.BOTH.,#144);
#144=SURFACE_SIDE_STYLE('',(#145));
#145=SURFACE_STYLE_FILL_AREA(#146);
#146=FILL_AREA_STYLE('',(#147));
#147=FILL_AREA_STYLE_COLOUR('',#149);
#148=CURVE_STYLE('',#150,POSITIVE_LENGTH_MEASURE(0.1),#149);
#149=COLOUR_RGB('Pin1',0.588,0.588,0.059);
#150=DRAUGHTING_PRE_DEFINED_CURVE_FONT('continuous');
#151=PRESENTATION_STYLE_ASSIGNMENT((#152,#157));
#152=SURFACE_STYLE_USAGE(.BOTH.,#153);
#153=SURFACE_SIDE_STYLE('',(#154));
#154=SURFACE_STYLE_FILL_AREA(#155);
#155=FILL_AREA_STYLE('',(#156));
#156=FILL_AREA_STYLE_COLOUR('',#158);
#157=CURVE_STYLE('',#159,POSITIVE_LENGTH_MEASURE(0.1),#158);
#158=COLOUR_RGB('Pin1Rad',0.588,0.588,0.588);
#159=DRAUGHTING_PRE_DEFINED_CURVE_FONT('continuous');
#160=PRESENTATION_STYLE_ASSIGNMENT((#161,#166));
#161=SURFACE_STYLE_USAGE(.BOTH.,#162);
#162=SURFACE_SIDE_STYLE('',(#163));
#163=SURFACE_STYLE_FILL_AREA(#164);
#164=FILL_AREA_STYLE('',(#165));
#165=FILL_AREA_STYLE_COLOUR('',#167);
#166=CURVE_STYLE('',#168,POSITIVE_LENGTH_MEASURE(0.1),#167);
#167=COLOUR_RGB('Pin1Axial',0.98,0.706,0.176);
#168=DRAUGHTING_PRE_DEFINED_CURVE_FONT('continuous');
#169=PRESENTATION_STYLE_ASSIGNMENT((#170,#175));
#170=SURFACE_STYLE_USAGE(.BOTH.,#171);
#171=SURFACE_SIDE_STYLE('',(#172));
#172=SURFACE_STYLE_FILL_AREA(#173);
#173=FILL_AREA_STYLE('',(#174));
#174=FILL_AREA_STYLE_COLOUR('',#176);
#175=CURVE_STYLE('',#177,POSITIVE_LENGTH_MEASURE(0.1),#176);
#176=COLOUR_RGB('Pin1Tant',0.459,0.345,0.176);
#177=DRAUGHTING_PRE_DEFINED_CURVE_FONT('continuous');
#178=PRESENTATION_STYLE_ASSIGNMENT((#179,#184));
#179=SURFACE_STYLE_USAGE(.BOTH.,#180);
#180=SURFACE_SIDE_STYLE('',(#181));
#181=SURFACE_STYLE_FILL_AREA(#182);
#182=FILL_AREA_STYLE('',(#183));
#183=FILL_AREA_STYLE_COLOUR('',#185);
#184=CURVE_STYLE('',#186,POSITIVE_LENGTH_MEASURE(0.1),#185);
#185=COLOUR_RGB('Shroud',0.235,0.235,0.235);
#186=DRAUGHTING_PRE_DEFINED_CURVE_FONT('continuous');
#188=MANIFOLD_SOLID_BREP($,#189);
#189=CLOSED_SHELL('',(#191,#240,#289,#338,#387,#436));
#190=STYLED_ITEM('',(#43),#191);
#191=ADVANCED_FACE('',(#197),#192,.T.);
#192=PLANE('',#193);
#193=AXIS2_PLACEMENT_3D('',#194,#195,#196);
#194=CARTESIAN_POINT('',(-6.223,-6.248,0.025));
#195=DIRECTION('',(0.0,-1.0,0.0));
#196=DIRECTION('',(0.,0.,1.));
#197=FACE_OUTER_BOUND('',#198,.T.);
#198=EDGE_LOOP('',(#199,#209,#219,#229));
#202=CARTESIAN_POINT('',(6.223,-6.248,0.025));
#201=VERTEX_POINT('',#202);
#204=CARTESIAN_POINT('',(-6.223,-6.248,0.025));
#203=VERTEX_POINT('',#204);
#200=EDGE_CURVE('',#201,#203,#205,.T.);
#205=LINE('',#202,#207);
#207=VECTOR('',#208,12.446);
#208=DIRECTION('',(-1.0,0.0,0.0));
#199=ORIENTED_EDGE('',*,*,#200,.F.);
#212=CARTESIAN_POINT('',(6.223,-6.248,9.982));
#211=VERTEX_POINT('',#212);
#210=EDGE_CURVE('',#211,#201,#215,.T.);
#215=LINE('',#212,#217);
#217=VECTOR('',#218,9.9568);
#218=DIRECTION('',(0.0,0.0,-1.0));
#209=ORIENTED_EDGE('',*,*,#210,.F.);
#222=CARTESIAN_POINT('',(-6.223,-6.248,9.982));
#221=VERTEX_POINT('',#222);
#220=EDGE_CURVE('',#221,#211,#225,.T.);
#225=LINE('',#222,#227);
#227=VECTOR('',#228,12.446);
#228=DIRECTION('',(1.0,0.0,0.0));
#219=ORIENTED_EDGE('',*,*,#220,.F.);
#230=EDGE_CURVE('',#203,#221,#235,.T.);
#235=LINE('',#204,#237);
#237=VECTOR('',#238,9.9568);
#238=DIRECTION('',(0.0,0.0,1.0));
#229=ORIENTED_EDGE('',*,*,#230,.F.);
#239=STYLED_ITEM('',(#43),#240);
#240=ADVANCED_FACE('',(#246),#241,.T.);
#241=PLANE('',#242);
#242=AXIS2_PLACEMENT_3D('',#243,#244,#245);
#243=CARTESIAN_POINT('',(6.223,-6.248,0.025));
#244=DIRECTION('',(1.0,0.0,0.0));
#245=DIRECTION('',(0.,0.,1.));
#246=FACE_OUTER_BOUND('',#247,.T.);
#247=EDGE_LOOP('',(#248,#258,#268,#278));
#251=CARTESIAN_POINT('',(6.223,6.248,0.025));
#250=VERTEX_POINT('',#251);
#249=EDGE_CURVE('',#250,#201,#254,.T.);
#254=LINE('',#251,#256);
#256=VECTOR('',#257,12.4968);
#257=DIRECTION('',(0.0,-1.0,0.0));
#248=ORIENTED_EDGE('',*,*,#249,.F.);
#261=CARTESIAN_POINT('',(6.223,6.248,9.982));
#260=VERTEX_POINT('',#261);
#259=EDGE_CURVE('',#260,#250,#264,.T.);
#264=LINE('',#261,#266);
#266=VECTOR('',#267,9.9568);
#267=DIRECTION('',(0.0,0.0,-1.0));
#258=ORIENTED_EDGE('',*,*,#259,.F.);
#269=EDGE_CURVE('',#211,#260,#274,.T.);
#274=LINE('',#212,#276);
#276=VECTOR('',#277,12.4968);
#277=DIRECTION('',(0.0,1.0,0.0));
#268=ORIENTED_EDGE('',*,*,#269,.F.);
#278=ORIENTED_EDGE('',*,*,#210,.T.);
#288=STYLED_ITEM('',(#43),#289);
#289=ADVANCED_FACE('',(#295),#290,.T.);
#290=PLANE('',#291);
#291=AXIS2_PLACEMENT_3D('',#292,#293,#294);
#292=CARTESIAN_POINT('',(6.223,6.248,0.025));
#293=DIRECTION('',(0.0,1.0,0.0));
#294=DIRECTION('',(0.,0.,1.));
#295=FACE_OUTER_BOUND('',#296,.T.);
#296=EDGE_LOOP('',(#297,#307,#317,#327));
#300=CARTESIAN_POINT('',(-6.223,6.248,0.025));
#299=VERTEX_POINT('',#300);
#298=EDGE_CURVE('',#299,#250,#303,.T.);
#303=LINE('',#300,#305);
#305=VECTOR('',#306,12.446);
#306=DIRECTION('',(1.0,0.0,0.0));
#297=ORIENTED_EDGE('',*,*,#298,.F.);
#310=CARTESIAN_POINT('',(-6.223,6.248,9.982));
#309=VERTEX_POINT('',#310);
#308=EDGE_CURVE('',#309,#299,#313,.T.);
#313=LINE('',#310,#315);
#315=VECTOR('',#316,9.9568);
#316=DIRECTION('',(0.0,0.0,-1.0));
#307=ORIENTED_EDGE('',*,*,#308,.F.);
#318=EDGE_CURVE('',#260,#309,#323,.T.);
#323=LINE('',#261,#325);
#325=VECTOR('',#326,12.446);
#326=DIRECTION('',(-1.0,0.0,0.0));
#317=ORIENTED_EDGE('',*,*,#318,.F.);
#327=ORIENTED_EDGE('',*,*,#259,.T.);
#337=STYLED_ITEM('',(#43),#338);
#338=ADVANCED_FACE('',(#344),#339,.T.);
#339=PLANE('',#340);
#340=AXIS2_PLACEMENT_3D('',#341,#342,#343);
#341=CARTESIAN_POINT('',(-6.223,6.248,0.025));
#342=DIRECTION('',(-1.0,0.0,0.0));
#343=DIRECTION('',(0.,0.,1.));
#344=FACE_OUTER_BOUND('',#345,.T.);
#345=EDGE_LOOP('',(#346,#356,#366,#376));
#347=EDGE_CURVE('',#203,#299,#352,.T.);
#352=LINE('',#204,#354);
#354=VECTOR('',#355,12.4968);
#355=DIRECTION('',(0.0,1.0,0.0));
#346=ORIENTED_EDGE('',*,*,#347,.F.);
#356=ORIENTED_EDGE('',*,*,#230,.T.);
#367=EDGE_CURVE('',#309,#221,#372,.T.);
#372=LINE('',#310,#374);
#374=VECTOR('',#375,12.4968);
#375=DIRECTION('',(0.0,-1.0,0.0));
#366=ORIENTED_EDGE('',*,*,#367,.F.);
#376=ORIENTED_EDGE('',*,*,#308,.T.);
#386=STYLED_ITEM('',(#43),#387);
#387=ADVANCED_FACE('',(#393),#388,.T.);
#388=PLANE('',#389);
#389=AXIS2_PLACEMENT_3D('',#390,#391,#392);
#390=CARTESIAN_POINT('',(-6.223,6.248,0.025));
#391=DIRECTION('',(0.0,0.0,-1.0));
#392=DIRECTION('',(0.,1.,0.));
#393=FACE_OUTER_BOUND('',#394,.T.);
#394=EDGE_LOOP('',(#395,#405,#415,#425));
#395=ORIENTED_EDGE('',*,*,#298,.T.);
#405=ORIENTED_EDGE('',*,*,#249,.T.);
#415=ORIENTED_EDGE('',*,*,#200,.T.);
#425=ORIENTED_EDGE('',*,*,#347,.T.);
#435=STYLED_ITEM('',(#43),#436);
#436=ADVANCED_FACE('',(#442),#437,.T.);
#437=PLANE('',#438);
#438=AXIS2_PLACEMENT_3D('',#439,#440,#441);
#439=CARTESIAN_POINT('',(-6.223,-6.248,9.982));
#440=DIRECTION('',(0.0,0.0,1.0));
#441=DIRECTION('',(0.,1.,0.));
#442=FACE_OUTER_BOUND('',#443,.T.);
#443=EDGE_LOOP('',(#444,#454,#464,#474));
#444=ORIENTED_EDGE('',*,*,#220,.T.);
#454=ORIENTED_EDGE('',*,*,#269,.T.);
#464=ORIENTED_EDGE('',*,*,#318,.T.);
#474=ORIENTED_EDGE('',*,*,#367,.T.);
#485=MANIFOLD_SOLID_BREP($,#486);
#486=CLOSED_SHELL('',(#488,#537,#586,#635,#684,#753,#822,#891,#960,#1009,#1058,#1107));
#487=STYLED_ITEM('',(#52),#488);
#488=ADVANCED_FACE('',(#494),#489,.T.);
#489=PLANE('',#490);
#490=AXIS2_PLACEMENT_3D('',#491,#492,#493);
#491=CARTESIAN_POINT('',(-2.916,6.251,0.023));
#492=DIRECTION('',(0.0,0.0,-1.0));
#493=DIRECTION('',(0.,1.,0.));
#494=FACE_OUTER_BOUND('',#495,.T.);
#495=EDGE_LOOP('',(#496,#506,#516,#526));
#499=CARTESIAN_POINT('',(-2.187,6.251,0.023));
#498=VERTEX_POINT('',#499);
#501=CARTESIAN_POINT('',(-2.916,6.251,0.023));
#500=VERTEX_POINT('',#501);
#497=EDGE_CURVE('',#498,#500,#502,.T.);
#502=LINE('',#499,#504);
#504=VECTOR('',#505,0.72898);
#505=DIRECTION('',(-1.0,0.0,0.0));
#496=ORIENTED_EDGE('',*,*,#497,.F.);
#509=CARTESIAN_POINT('',(-2.187,-6.251,0.023));
#508=VERTEX_POINT('',#509);
#507=EDGE_CURVE('',#508,#498,#512,.T.);
#512=LINE('',#509,#514);
#514=VECTOR('',#515,12.50188);
#515=DIRECTION('',(0.0,1.0,0.0));
#506=ORIENTED_EDGE('',*,*,#507,.F.);
#519=CARTESIAN_POINT('',(-2.916,-6.251,0.023));
#518=VERTEX_POINT('',#519);
#517=EDGE_CURVE('',#518,#508,#522,.T.);
#522=LINE('',#519,#524);
#524=VECTOR('',#525,0.72898);
#525=DIRECTION('',(1.0,0.0,0.0));
#516=ORIENTED_EDGE('',*,*,#517,.F.);
#527=EDGE_CURVE('',#500,#518,#532,.T.);
#532=LINE('',#501,#534);
#534=VECTOR('',#535,12.50188);
#535=DIRECTION('',(0.0,-1.0,0.0));
#526=ORIENTED_EDGE('',*,*,#527,.F.);
#536=STYLED_ITEM('',(#52),#537);
#537=ADVANCED_FACE('',(#543),#538,.T.);
#538=PLANE('',#539);
#539=AXIS2_PLACEMENT_3D('',#540,#541,#542);
#540=CARTESIAN_POINT('',(-2.916,-6.251,0.023));
#541=DIRECTION('',(0.0,-1.0,0.0));
#542=DIRECTION('',(0.,0.,1.));
#543=FACE_OUTER_BOUND('',#544,.T.);
#544=EDGE_LOOP('',(#545,#555,#565,#575));
#545=ORIENTED_EDGE('',*,*,#517,.T.);
#558=CARTESIAN_POINT('',(-2.187,-6.251,9.985));
#557=VERTEX_POINT('',#558);
#556=EDGE_CURVE('',#557,#508,#561,.T.);
#561=LINE('',#558,#563);
#563=VECTOR('',#564,9.96188);
#564=DIRECTION('',(0.0,0.0,-1.0));
#555=ORIENTED_EDGE('',*,*,#556,.F.);
#568=CARTESIAN_POINT('',(-2.916,-6.251,9.985));
#567=VERTEX_POINT('',#568);
#566=EDGE_CURVE('',#567,#557,#571,.T.);
#571=LINE('',#568,#573);
#573=VECTOR('',#574,0.72898);
#574=DIRECTION('',(1.0,0.0,0.0));
#565=ORIENTED_EDGE('',*,*,#566,.F.);
#576=EDGE_CURVE('',#518,#567,#581,.T.);
#581=LINE('',#519,#583);
#583=VECTOR('',#584,9.96188);
#584=DIRECTION('',(0.0,0.0,1.0));
#575=ORIENTED_EDGE('',*,*,#576,.F.);
#585=STYLED_ITEM('',(#52),#586);
#586=ADVANCED_FACE('',(#592),#587,.T.);
#587=PLANE('',#588);
#588=AXIS2_PLACEMENT_3D('',#589,#590,#591);
#589=CARTESIAN_POINT('',(-2.187,6.251,0.023));
#590=DIRECTION('',(0.0,1.0,0.0));
#591=DIRECTION('',(0.,0.,1.));
#592=FACE_OUTER_BOUND('',#593,.T.);
#593=EDGE_LOOP('',(#594,#604,#614,#624));
#594=ORIENTED_EDGE('',*,*,#497,.T.);
#607=CARTESIAN_POINT('',(-2.916,6.251,9.985));
#606=VERTEX_POINT('',#607);
#605=EDGE_CURVE('',#606,#500,#610,.T.);
#610=LINE('',#607,#612);
#612=VECTOR('',#613,9.96188);
#613=DIRECTION('',(0.0,0.0,-1.0));
#604=ORIENTED_EDGE('',*,*,#605,.F.);
#617=CARTESIAN_POINT('',(-2.187,6.251,9.985));
#616=VERTEX_POINT('',#617);
#615=EDGE_CURVE('',#616,#606,#620,.T.);
#620=LINE('',#617,#622);
#622=VECTOR('',#623,0.72898);
#623=DIRECTION('',(-1.0,0.0,0.0));
#614=ORIENTED_EDGE('',*,*,#615,.F.);
#625=EDGE_CURVE('',#498,#616,#630,.T.);
#630=LINE('',#499,#632);
#632=VECTOR('',#633,9.96188);
#633=DIRECTION('',(0.0,0.0,1.0));
#624=ORIENTED_EDGE('',*,*,#625,.F.);
#634=STYLED_ITEM('',(#52),#635);
#635=ADVANCED_FACE('',(#641),#636,.T.);
#636=PLANE('',#637);
#637=AXIS2_PLACEMENT_3D('',#638,#639,#640);
#638=CARTESIAN_POINT('',(-2.916,-6.251,9.985));
#639=DIRECTION('',(0.0,0.0,1.0));
#640=DIRECTION('',(0.,1.,0.));
#641=FACE_OUTER_BOUND('',#642,.T.);
#642=EDGE_LOOP('',(#643,#653,#663,#673));
#643=ORIENTED_EDGE('',*,*,#566,.T.);
#654=EDGE_CURVE('',#616,#557,#659,.T.);
#659=LINE('',#617,#661);
#661=VECTOR('',#662,12.50188);
#662=DIRECTION('',(0.0,-1.0,0.0));
#653=ORIENTED_EDGE('',*,*,#654,.F.);
#663=ORIENTED_EDGE('',*,*,#615,.T.);
#674=EDGE_CURVE('',#567,#606,#679,.T.);
#679=LINE('',#568,#681);
#681=VECTOR('',#682,12.50188);
#682=DIRECTION('',(0.0,1.0,0.0));
#673=ORIENTED_EDGE('',*,*,#674,.F.);
#683=STYLED_ITEM('',(#52),#684);
#684=ADVANCED_FACE('',(#690),#685,.T.);
#685=PLANE('',#686);
#686=AXIS2_PLACEMENT_3D('',#687,#688,#689);
#687=CARTESIAN_POINT('',(-2.187,-6.251,0.023));
#688=DIRECTION('',(1.0,0.0,0.0));
#689=DIRECTION('',(0.,0.,1.));
#690=FACE_OUTER_BOUND('',#691,.T.);
#691=EDGE_LOOP('',(#692,#702,#712,#722,#732,#742));
#692=ORIENTED_EDGE('',*,*,#507,.T.);
#702=ORIENTED_EDGE('',*,*,#625,.T.);
#715=CARTESIAN_POINT('',(-2.187,6.248,9.982));
#714=VERTEX_POINT('',#715);
#713=EDGE_CURVE('',#714,#616,#718,.T.);
#718=LINE('',#715,#720);
#720=VECTOR('',#721,0.00359210244842695);
#721=DIRECTION('',(0.0,0.707,0.707));
#712=ORIENTED_EDGE('',*,*,#713,.F.);
#725=CARTESIAN_POINT('',(-2.187,6.248,0.025));
#724=VERTEX_POINT('',#725);
#723=EDGE_CURVE('',#724,#714,#728,.T.);
#728=LINE('',#725,#730);
#730=VECTOR('',#731,9.9568);
#731=DIRECTION('',(0.0,0.0,1.0));
#722=ORIENTED_EDGE('',*,*,#723,.F.);
#735=CARTESIAN_POINT('',(-2.187,-6.248,0.025));
#734=VERTEX_POINT('',#735);
#733=EDGE_CURVE('',#734,#724,#738,.T.);
#738=LINE('',#735,#740);
#740=VECTOR('',#741,12.4968);
#741=DIRECTION('',(0.0,1.0,0.0));
#732=ORIENTED_EDGE('',*,*,#733,.F.);
#743=EDGE_CURVE('',#508,#734,#748,.T.);
#748=LINE('',#509,#750);
#750=VECTOR('',#751,0.00359210244842756);
#751=DIRECTION('',(0.0,0.707,0.707));
#742=ORIENTED_EDGE('',*,*,#743,.F.);
#752=STYLED_ITEM('',(#52),#753);
#753=ADVANCED_FACE('',(#759),#754,.T.);
#754=PLANE('',#755);
#755=AXIS2_PLACEMENT_3D('',#756,#757,#758);
#756=CARTESIAN_POINT('',(-2.187,-6.251,0.023));
#757=DIRECTION('',(1.0,0.0,0.0));
#758=DIRECTION('',(0.,0.,1.));
#759=FACE_OUTER_BOUND('',#760,.T.);
#760=EDGE_LOOP('',(#761,#771,#781,#791,#801,#811));
#761=ORIENTED_EDGE('',*,*,#743,.T.);
#774=CARTESIAN_POINT('',(-2.187,-6.248,9.982));
#773=VERTEX_POINT('',#774);
#772=EDGE_CURVE('',#773,#734,#777,.T.);
#777=LINE('',#774,#779);
#779=VECTOR('',#780,9.9568);
#780=DIRECTION('',(0.0,0.0,-1.0));
#771=ORIENTED_EDGE('',*,*,#772,.F.);
#782=EDGE_CURVE('',#714,#773,#787,.T.);
#787=LINE('',#715,#789);
#789=VECTOR('',#790,12.4968);
#790=DIRECTION('',(0.0,-1.0,0.0));
#781=ORIENTED_EDGE('',*,*,#782,.F.);
#791=ORIENTED_EDGE('',*,*,#713,.T.);
#801=ORIENTED_EDGE('',*,*,#654,.T.);
#811=ORIENTED_EDGE('',*,*,#556,.T.);
#821=STYLED_ITEM('',(#52),#822);
#822=ADVANCED_FACE('',(#828),#823,.T.);
#823=PLANE('',#824);
#824=AXIS2_PLACEMENT_3D('',#825,#826,#827);
#825=CARTESIAN_POINT('',(-2.916,6.251,0.023));
#826=DIRECTION('',(-1.0,0.0,0.0));
#827=DIRECTION('',(0.,0.,1.));
#828=FACE_OUTER_BOUND('',#829,.T.);
#829=EDGE_LOOP('',(#830,#840,#850,#860,#870,#880));
#830=ORIENTED_EDGE('',*,*,#527,.T.);
#843=CARTESIAN_POINT('',(-2.916,-6.248,0.025));
#842=VERTEX_POINT('',#843);
#841=EDGE_CURVE('',#842,#518,#846,.T.);
#846=LINE('',#843,#848);
#848=VECTOR('',#849,0.00359210244842756);
#849=DIRECTION('',(0.0,-0.707,-0.707));
#840=ORIENTED_EDGE('',*,*,#841,.F.);
#853=CARTESIAN_POINT('',(-2.916,6.248,0.025));
#852=VERTEX_POINT('',#853);
#851=EDGE_CURVE('',#852,#842,#856,.T.);
#856=LINE('',#853,#858);
#858=VECTOR('',#859,12.4968);
#859=DIRECTION('',(0.0,-1.0,0.0));
#850=ORIENTED_EDGE('',*,*,#851,.F.);
#863=CARTESIAN_POINT('',(-2.916,6.248,9.982));
#862=VERTEX_POINT('',#863);
#861=EDGE_CURVE('',#862,#852,#866,.T.);
#866=LINE('',#863,#868);
#868=VECTOR('',#869,9.9568);
#869=DIRECTION('',(0.0,0.0,-1.0));
#860=ORIENTED_EDGE('',*,*,#861,.F.);
#871=EDGE_CURVE('',#606,#862,#876,.T.);
#876=LINE('',#607,#878);
#878=VECTOR('',#879,0.00359210244842695);
#879=DIRECTION('',(0.0,-0.707,-0.707));
#870=ORIENTED_EDGE('',*,*,#871,.F.);
#880=ORIENTED_EDGE('',*,*,#605,.T.);
#890=STYLED_ITEM('',(#52),#891);
#891=ADVANCED_FACE('',(#897),#892,.T.);
#892=PLANE('',#893);
#893=AXIS2_PLACEMENT_3D('',#894,#895,#896);
#894=CARTESIAN_POINT('',(-2.916,-6.248,0.025));
#895=DIRECTION('',(-1.0,0.0,0.0));
#896=DIRECTION('',(0.,0.,1.));
#897=FACE_OUTER_BOUND('',#898,.T.);
#898=EDGE_LOOP('',(#899,#909,#919,#929,#939,#949));
#899=ORIENTED_EDGE('',*,*,#841,.T.);
#909=ORIENTED_EDGE('',*,*,#576,.T.);
#919=ORIENTED_EDGE('',*,*,#674,.T.);
#929=ORIENTED_EDGE('',*,*,#871,.T.);
#942=CARTESIAN_POINT('',(-2.916,-6.248,9.982));
#941=VERTEX_POINT('',#942);
#940=EDGE_CURVE('',#941,#862,#945,.T.);
#945=LINE('',#942,#947);
#947=VECTOR('',#948,12.4968);
#948=DIRECTION('',(0.0,1.0,0.0));
#939=ORIENTED_EDGE('',*,*,#940,.F.);
#950=EDGE_CURVE('',#842,#941,#955,.T.);
#955=LINE('',#843,#957);
#957=VECTOR('',#958,9.9568);
#958=DIRECTION('',(0.0,0.0,1.0));
#949=ORIENTED_EDGE('',*,*,#950,.F.);
#959=STYLED_ITEM('',(#52),#960);
#960=ADVANCED_FACE('',(#966),#961,.T.);
#961=PLANE('',#962);
#962=AXIS2_PLACEMENT_3D('',#963,#964,#965);
#963=CARTESIAN_POINT('',(-2.916,6.248,0.025));
#964=DIRECTION('',(0.0,-1.0,0.0));
#965=DIRECTION('',(0.,0.,1.));
#966=FACE_OUTER_BOUND('',#967,.T.);
#967=EDGE_LOOP('',(#968,#978,#988,#998));
#969=EDGE_CURVE('',#724,#852,#974,.T.);
#974=LINE('',#725,#976);
#976=VECTOR('',#977,0.72898);
#977=DIRECTION('',(-1.0,0.0,0.0));
#968=ORIENTED_EDGE('',*,*,#969,.F.);
#978=ORIENTED_EDGE('',*,*,#723,.T.);
#989=EDGE_CURVE('',#862,#714,#994,.T.);
#994=LINE('',#863,#996);
#996=VECTOR('',#997,0.72898);
#997=DIRECTION('',(1.0,0.0,0.0));
#988=ORIENTED_EDGE('',*,*,#989,.F.);
#998=ORIENTED_EDGE('',*,*,#861,.T.);
#1008=STYLED_ITEM('',(#52),#1009);
#1009=ADVANCED_FACE('',(#1015),#1010,.T.);
#1010=PLANE('',#1011);
#1011=AXIS2_PLACEMENT_3D('',#1012,#1013,#1014);
#1012=CARTESIAN_POINT('',(-2.187,-6.248,0.025));
#1013=DIRECTION('',(0.0,1.0,0.0));
#1014=DIRECTION('',(0.,0.,1.));
#1015=FACE_OUTER_BOUND('',#1016,.T.);
#1016=EDGE_LOOP('',(#1017,#1027,#1037,#1047));
#1018=EDGE_CURVE('',#842,#734,#1023,.T.);
#1023=LINE('',#843,#1025);
#1025=VECTOR('',#1026,0.72898);
#1026=DIRECTION('',(1.0,0.0,0.0));
#1017=ORIENTED_EDGE('',*,*,#1018,.F.);
#1027=ORIENTED_EDGE('',*,*,#950,.T.);
#1038=EDGE_CURVE('',#773,#941,#1043,.T.);
#1043=LINE('',#774,#1045);
#1045=VECTOR('',#1046,0.72898);
#1046=DIRECTION('',(-1.0,0.0,0.0));
#1037=ORIENTED_EDGE('',*,*,#1038,.F.);
#1047=ORIENTED_EDGE('',*,*,#772,.T.);
#1057=STYLED_ITEM('',(#52),#1058);
#1058=ADVANCED_FACE('',(#1064),#1059,.T.);
#1059=PLANE('',#1060);
#1060=AXIS2_PLACEMENT_3D('',#1061,#1062,#1063);
#1061=CARTESIAN_POINT('',(-2.916,-6.248,0.025));
#1062=DIRECTION('',(0.0,0.0,1.0));
#1063=DIRECTION('',(0.,1.,0.));
#1064=FACE_OUTER_BOUND('',#1065,.T.);
#1065=EDGE_LOOP('',(#1066,#1076,#1086,#1096));
#1066=ORIENTED_EDGE('',*,*,#1018,.T.);
#1076=ORIENTED_EDGE('',*,*,#733,.T.);
#1086=ORIENTED_EDGE('',*,*,#969,.T.);
#1096=ORIENTED_EDGE('',*,*,#851,.T.);
#1106=STYLED_ITEM('',(#52),#1107);
#1107=ADVANCED_FACE('',(#1113),#1108,.T.);
#1108=PLANE('',#1109);
#1109=AXIS2_PLACEMENT_3D('',#1110,#1111,#1112);
#1110=CARTESIAN_POINT('',(-2.187,-6.248,9.982));
#1111=DIRECTION('',(0.0,0.0,-1.0));
#1112=DIRECTION('',(0.,1.,0.));
#1113=FACE_OUTER_BOUND('',#1114,.T.);
#1114=EDGE_LOOP('',(#1115,#1125,#1135,#1145));
#1115=ORIENTED_EDGE('',*,*,#1038,.T.);
#1125=ORIENTED_EDGE('',*,*,#940,.T.);
#1135=ORIENTED_EDGE('',*,*,#989,.T.);
#1145=ORIENTED_EDGE('',*,*,#782,.T.);
#1156=MANIFOLD_SOLID_BREP($,#1157);
#1157=CLOSED_SHELL('',(#1159,#1208,#1257,#1306,#1355,#1404,#1453,#1502,#1551,#1640));
#1158=STYLED_ITEM('',(#34),#1159);
#1159=ADVANCED_FACE('',(#1165),#1160,.T.);
#1160=PLANE('',#1161);
#1161=AXIS2_PLACEMENT_3D('',#1162,#1163,#1164);
#1162=CARTESIAN_POINT('',(6.248,2.654,10.008));
#1163=DIRECTION('',(0.0,0.0,1.0));
#1164=DIRECTION('',(0.,1.,0.));
#1165=FACE_OUTER_BOUND('',#1166,.T.);
#1166=EDGE_LOOP('',(#1167,#1177,#1187,#1197));
#1170=CARTESIAN_POINT('',(3.645,2.654,10.008));
#1169=VERTEX_POINT('',#1170);
#1172=CARTESIAN_POINT('',(6.248,2.654,10.008));
#1171=VERTEX_POINT('',#1172);
#1168=EDGE_CURVE('',#1169,#1171,#1173,.T.);
#1173=LINE('',#1170,#1175);
#1175=VECTOR('',#1176,2.6035);
#1176=DIRECTION('',(1.0,0.0,0.0));
#1167=ORIENTED_EDGE('',*,*,#1168,.F.);
#1180=CARTESIAN_POINT('',(3.645,-2.654,10.008));
#1179=VERTEX_POINT('',#1180);
#1178=EDGE_CURVE('',#1179,#1169,#1183,.T.);
#1183=LINE('',#1180,#1185);
#1185=VECTOR('',#1186,5.3086);
#1186=DIRECTION('',(0.0,1.0,0.0));
#1177=ORIENTED_EDGE('',*,*,#1178,.F.);
#1190=CARTESIAN_POINT('',(6.248,-2.654,10.008));
#1189=VERTEX_POINT('',#1190);
#1188=EDGE_CURVE('',#1189,#1179,#1193,.T.);
#1193=LINE('',#1190,#1195);
#1195=VECTOR('',#1196,2.6035);
#1196=DIRECTION('',(-1.0,0.0,0.0));
#1187=ORIENTED_EDGE('',*,*,#1188,.F.);
#1198=EDGE_CURVE('',#1171,#1189,#1203,.T.);
#1203=LINE('',#1172,#1205);
#1205=VECTOR('',#1206,5.3086);
#1206=DIRECTION('',(0.0,-1.0,0.0));
#1197=ORIENTED_EDGE('',*,*,#1198,.F.);
#1207=STYLED_ITEM('',(#34),#1208);
#1208=ADVANCED_FACE('',(#1214),#1209,.T.);
#1209=PLANE('',#1210);
#1210=AXIS2_PLACEMENT_3D('',#1211,#1212,#1213);
#1211=CARTESIAN_POINT('',(6.223,2.654,0.025));
#1212=DIRECTION('',(0.0,0.0,1.0));
#1213=DIRECTION('',(0.,1.,0.));
#1214=FACE_OUTER_BOUND('',#1215,.T.);
#1215=EDGE_LOOP('',(#1216,#1226,#1236,#1246));
#1219=CARTESIAN_POINT('',(3.645,2.654,0.025));
#1218=VERTEX_POINT('',#1219);
#1221=CARTESIAN_POINT('',(6.223,2.654,0.025));
#1220=VERTEX_POINT('',#1221);
#1217=EDGE_CURVE('',#1218,#1220,#1222,.T.);
#1222=LINE('',#1219,#1224);
#1224=VECTOR('',#1225,2.5781);
#1225=DIRECTION('',(1.0,0.0,0.0));
#1216=ORIENTED_EDGE('',*,*,#1217,.F.);
#1229=CARTESIAN_POINT('',(3.645,-2.654,0.025));
#1228=VERTEX_POINT('',#1229);
#1227=EDGE_CURVE('',#1228,#1218,#1232,.T.);
#1232=LINE('',#1229,#1234);
#1234=VECTOR('',#1235,5.3086);
#1235=DIRECTION('',(0.0,1.0,0.0));
#1226=ORIENTED_EDGE('',*,*,#1227,.F.);
#1239=CARTESIAN_POINT('',(6.223,-2.654,0.025));
#1238=VERTEX_POINT('',#1239);
#1237=EDGE_CURVE('',#1238,#1228,#1242,.T.);
#1242=LINE('',#1239,#1244);
#1244=VECTOR('',#1245,2.5781);
#1245=DIRECTION('',(-1.0,0.0,0.0));
#1236=ORIENTED_EDGE('',*,*,#1237,.F.);
#1247=EDGE_CURVE('',#1220,#1238,#1252,.T.);
#1252=LINE('',#1221,#1254);
#1254=VECTOR('',#1255,5.3086);
#1255=DIRECTION('',(0.0,-1.0,0.0));
#1246=ORIENTED_EDGE('',*,*,#1247,.F.);
#1256=STYLED_ITEM('',(#34),#1257);
#1257=ADVANCED_FACE('',(#1263),#1258,.T.);
#1258=PLANE('',#1259);
#1259=AXIS2_PLACEMENT_3D('',#1260,#1261,#1262);
#1260=CARTESIAN_POINT('',(6.248,-2.654,0.0));
#1261=DIRECTION('',(1.0,0.0,0.0));
#1262=DIRECTION('',(0.,0.,1.));
#1263=FACE_OUTER_BOUND('',#1264,.T.);
#1264=EDGE_LOOP('',(#1265,#1275,#1285,#1295));
#1268=CARTESIAN_POINT('',(6.248,2.654,0.0));
#1267=VERTEX_POINT('',#1268);
#1270=CARTESIAN_POINT('',(6.248,-2.654,0.0));
#1269=VERTEX_POINT('',#1270);
#1266=EDGE_CURVE('',#1267,#1269,#1271,.T.);
#1271=LINE('',#1268,#1273);
#1273=VECTOR('',#1274,5.3086);
#1274=DIRECTION('',(0.0,-1.0,0.0));
#1265=ORIENTED_EDGE('',*,*,#1266,.F.);
#1276=EDGE_CURVE('',#1171,#1267,#1281,.T.);
#1281=LINE('',#1172,#1283);
#1283=VECTOR('',#1284,10.0076);
#1284=DIRECTION('',(0.0,0.0,-1.0));
#1275=ORIENTED_EDGE('',*,*,#1276,.F.);
#1285=ORIENTED_EDGE('',*,*,#1198,.T.);
#1296=EDGE_CURVE('',#1269,#1189,#1301,.T.);
#1301=LINE('',#1270,#1303);
#1303=VECTOR('',#1304,10.0076);
#1304=DIRECTION('',(0.0,0.0,1.0));
#1295=ORIENTED_EDGE('',*,*,#1296,.F.);
#1305=STYLED_ITEM('',(#34),#1306);
#1306=ADVANCED_FACE('',(#1312),#1307,.T.);
#1307=PLANE('',#1308);
#1308=AXIS2_PLACEMENT_3D('',#1309,#1310,#1311);
#1309=CARTESIAN_POINT('',(3.645,2.654,9.982));
#1310=DIRECTION('',(-1.0,0.0,0.0));
#1311=DIRECTION('',(0.,0.,1.));
#1312=FACE_OUTER_BOUND('',#1313,.T.);
#1313=EDGE_LOOP('',(#1314,#1324,#1334,#1344));
#1317=CARTESIAN_POINT('',(3.645,-2.654,9.982));
#1316=VERTEX_POINT('',#1317);
#1319=CARTESIAN_POINT('',(3.645,2.654,9.982));
#1318=VERTEX_POINT('',#1319);
#1315=EDGE_CURVE('',#1316,#1318,#1320,.T.);
#1320=LINE('',#1317,#1322);
#1322=VECTOR('',#1323,5.3086);
#1323=DIRECTION('',(0.0,1.0,0.0));
#1314=ORIENTED_EDGE('',*,*,#1315,.F.);
#1325=EDGE_CURVE('',#1179,#1316,#1330,.T.);
#1330=LINE('',#1180,#1332);
#1332=VECTOR('',#1333,0.0254);
#1333=DIRECTION('',(0.0,0.0,-1.0));
#1324=ORIENTED_EDGE('',*,*,#1325,.F.);
#1334=ORIENTED_EDGE('',*,*,#1178,.T.);
#1345=EDGE_CURVE('',#1318,#1169,#1350,.T.);
#1350=LINE('',#1319,#1352);
#1352=VECTOR('',#1353,0.0254);
#1353=DIRECTION('',(0.0,0.0,1.0));
#1344=ORIENTED_EDGE('',*,*,#1345,.F.);
#1354=STYLED_ITEM('',(#34),#1355);
#1355=ADVANCED_FACE('',(#1361),#1356,.T.);
#1356=PLANE('',#1357);
#1357=AXIS2_PLACEMENT_3D('',#1358,#1359,#1360);
#1358=CARTESIAN_POINT('',(3.645,2.654,0.0));
#1359=DIRECTION('',(-1.0,0.0,0.0));
#1360=DIRECTION('',(0.,0.,1.));
#1361=FACE_OUTER_BOUND('',#1362,.T.);
#1362=EDGE_LOOP('',(#1363,#1373,#1383,#1393));
#1366=CARTESIAN_POINT('',(3.645,-2.654,0.0));
#1365=VERTEX_POINT('',#1366);
#1368=CARTESIAN_POINT('',(3.645,2.654,0.0));
#1367=VERTEX_POINT('',#1368);
#1364=EDGE_CURVE('',#1365,#1367,#1369,.T.);
#1369=LINE('',#1366,#1371);
#1371=VECTOR('',#1372,5.3086);
#1372=DIRECTION('',(0.0,1.0,0.0));
#1363=ORIENTED_EDGE('',*,*,#1364,.F.);
#1374=EDGE_CURVE('',#1228,#1365,#1379,.T.);
#1379=LINE('',#1229,#1381);
#1381=VECTOR('',#1382,0.0254);
#1382=DIRECTION('',(0.0,0.0,-1.0));
#1373=ORIENTED_EDGE('',*,*,#1374,.F.);
#1383=ORIENTED_EDGE('',*,*,#1227,.T.);
#1394=EDGE_CURVE('',#1367,#1218,#1399,.T.);
#1399=LINE('',#1368,#1401);
#1401=VECTOR('',#1402,0.0254);
#1402=DIRECTION('',(0.0,0.0,1.0));
#1393=ORIENTED_EDGE('',*,*,#1394,.F.);
#1403=STYLED_ITEM('',(#34),#1404);
#1404=ADVANCED_FACE('',(#1410),#1405,.T.);
#1405=PLANE('',#1406);
#1406=AXIS2_PLACEMENT_3D('',#1407,#1408,#1409);
#1407=CARTESIAN_POINT('',(6.223,2.654,0.025));
#1408=DIRECTION('',(-1.0,0.0,0.0));
#1409=DIRECTION('',(0.,0.,1.));
#1410=FACE_OUTER_BOUND('',#1411,.T.);
#1411=EDGE_LOOP('',(#1412,#1422,#1432,#1442));
#1412=ORIENTED_EDGE('',*,*,#1247,.T.);
#1425=CARTESIAN_POINT('',(6.223,-2.654,9.982));
#1424=VERTEX_POINT('',#1425);
#1423=EDGE_CURVE('',#1424,#1238,#1428,.T.);
#1428=LINE('',#1425,#1430);
#1430=VECTOR('',#1431,9.9568);
#1431=DIRECTION('',(0.0,0.0,-1.0));
#1422=ORIENTED_EDGE('',*,*,#1423,.F.);
#1435=CARTESIAN_POINT('',(6.223,2.654,9.982));
#1434=VERTEX_POINT('',#1435);
#1433=EDGE_CURVE('',#1434,#1424,#1438,.T.);
#1438=LINE('',#1435,#1440);
#1440=VECTOR('',#1441,5.3086);
#1441=DIRECTION('',(0.0,-1.0,0.0));
#1432=ORIENTED_EDGE('',*,*,#1433,.F.);
#1443=EDGE_CURVE('',#1220,#1434,#1448,.T.);
#1448=LINE('',#1221,#1450);
#1450=VECTOR('',#1451,9.9568);
#1451=DIRECTION('',(0.0,0.0,1.0));
#1442=ORIENTED_EDGE('',*,*,#1443,.F.);
#1452=STYLED_ITEM('',(#34),#1453);
#1453=ADVANCED_FACE('',(#1459),#1454,.T.);
#1454=PLANE('',#1455);
#1455=AXIS2_PLACEMENT_3D('',#1456,#1457,#1458);
#1456=CARTESIAN_POINT('',(6.223,-2.654,9.982));
#1457=DIRECTION('',(0.0,0.0,-1.0));
#1458=DIRECTION('',(0.,1.,0.));
#1459=FACE_OUTER_BOUND('',#1460,.T.);
#1460=EDGE_LOOP('',(#1461,#1471,#1481,#1491));
#1462=EDGE_CURVE('',#1316,#1424,#1467,.T.);
#1467=LINE('',#1317,#1469);
#1469=VECTOR('',#1470,2.5781);
#1470=DIRECTION('',(1.0,0.0,0.0));
#1461=ORIENTED_EDGE('',*,*,#1462,.F.);
#1471=ORIENTED_EDGE('',*,*,#1315,.T.);
#1482=EDGE_CURVE('',#1434,#1318,#1487,.T.);
#1487=LINE('',#1435,#1489);
#1489=VECTOR('',#1490,2.5781);
#1490=DIRECTION('',(-1.0,0.0,0.0));
#1481=ORIENTED_EDGE('',*,*,#1482,.F.);
#1491=ORIENTED_EDGE('',*,*,#1433,.T.);
#1501=STYLED_ITEM('',(#34),#1502);
#1502=ADVANCED_FACE('',(#1508),#1503,.T.);
#1503=PLANE('',#1504);
#1504=AXIS2_PLACEMENT_3D('',#1505,#1506,#1507);
#1505=CARTESIAN_POINT('',(6.248,-2.654,0.0));
#1506=DIRECTION('',(0.0,0.0,-1.0));
#1507=DIRECTION('',(0.,1.,0.));
#1508=FACE_OUTER_BOUND('',#1509,.T.);
#1509=EDGE_LOOP('',(#1510,#1520,#1530,#1540));
#1511=EDGE_CURVE('',#1365,#1269,#1516,.T.);
#1516=LINE('',#1366,#1518);
#1518=VECTOR('',#1519,2.6035);
#1519=DIRECTION('',(1.0,0.0,0.0));
#1510=ORIENTED_EDGE('',*,*,#1511,.F.);
#1520=ORIENTED_EDGE('',*,*,#1364,.T.);
#1531=EDGE_CURVE('',#1267,#1367,#1536,.T.);
#1536=LINE('',#1268,#1538);
#1538=VECTOR('',#1539,2.6035);
#1539=DIRECTION('',(-1.0,0.0,0.0));
#1530=ORIENTED_EDGE('',*,*,#1531,.F.);
#1540=ORIENTED_EDGE('',*,*,#1266,.T.);
#1550=STYLED_ITEM('',(#34),#1551);
#1551=ADVANCED_FACE('',(#1557),#1552,.T.);
#1552=PLANE('',#1553);
#1553=AXIS2_PLACEMENT_3D('',#1554,#1555,#1556);
#1554=CARTESIAN_POINT('',(6.248,2.654,0.0));
#1555=DIRECTION('',(0.0,1.0,0.0));
#1556=DIRECTION('',(0.,0.,1.));
#1557=FACE_OUTER_BOUND('',#1558,.T.);
#1558=EDGE_LOOP('',(#1559,#1569,#1579,#1589,#1599,#1609,#1619,#1629));
#1559=ORIENTED_EDGE('',*,*,#1531,.T.);
#1569=ORIENTED_EDGE('',*,*,#1394,.T.);
#1579=ORIENTED_EDGE('',*,*,#1217,.T.);
#1589=ORIENTED_EDGE('',*,*,#1443,.T.);
#1599=ORIENTED_EDGE('',*,*,#1482,.T.);
#1609=ORIENTED_EDGE('',*,*,#1345,.T.);
#1619=ORIENTED_EDGE('',*,*,#1168,.T.);
#1629=ORIENTED_EDGE('',*,*,#1276,.T.);
#1639=STYLED_ITEM('',(#34),#1640);
#1640=ADVANCED_FACE('',(#1646),#1641,.T.);
#1641=PLANE('',#1642);
#1642=AXIS2_PLACEMENT_3D('',#1643,#1644,#1645);
#1643=CARTESIAN_POINT('',(3.645,-2.654,0.0));
#1644=DIRECTION('',(0.0,-1.0,0.0));
#1645=DIRECTION('',(0.,0.,1.));
#1646=FACE_OUTER_BOUND('',#1647,.T.);
#1647=EDGE_LOOP('',(#1648,#1658,#1668,#1678,#1688,#1698,#1708,#1718));
#1648=ORIENTED_EDGE('',*,*,#1511,.T.);
#1658=ORIENTED_EDGE('',*,*,#1296,.T.);
#1668=ORIENTED_EDGE('',*,*,#1188,.T.);
#1678=ORIENTED_EDGE('',*,*,#1325,.T.);
#1688=ORIENTED_EDGE('',*,*,#1462,.T.);
#1698=ORIENTED_EDGE('',*,*,#1423,.T.);
#1708=ORIENTED_EDGE('',*,*,#1237,.T.);
#1718=ORIENTED_EDGE('',*,*,#1374,.T.);
#1729=MANIFOLD_SOLID_BREP($,#1730);
#1730=CLOSED_SHELL('',(#1732,#1781,#1830,#1879,#1928,#1977,#2026,#2075,#2124,#2213));
#1731=STYLED_ITEM('',(#34),#1732);
#1732=ADVANCED_FACE('',(#1738),#1733,.T.);
#1733=PLANE('',#1734);
#1734=AXIS2_PLACEMENT_3D('',#1735,#1736,#1737);
#1735=CARTESIAN_POINT('',(-6.248,-2.654,10.008));
#1736=DIRECTION('',(0.0,0.0,1.0));
#1737=DIRECTION('',(0.,1.,0.));
#1738=FACE_OUTER_BOUND('',#1739,.T.);
#1739=EDGE_LOOP('',(#1740,#1750,#1760,#1770));
#1743=CARTESIAN_POINT('',(-3.645,-2.654,10.008));
#1742=VERTEX_POINT('',#1743);
#1745=CARTESIAN_POINT('',(-6.248,-2.654,10.008));
#1744=VERTEX_POINT('',#1745);
#1741=EDGE_CURVE('',#1742,#1744,#1746,.T.);
#1746=LINE('',#1743,#1748);
#1748=VECTOR('',#1749,2.6035);
#1749=DIRECTION('',(-1.0,0.0,0.0));
#1740=ORIENTED_EDGE('',*,*,#1741,.F.);
#1753=CARTESIAN_POINT('',(-3.645,2.654,10.008));
#1752=VERTEX_POINT('',#1753);
#1751=EDGE_CURVE('',#1752,#1742,#1756,.T.);
#1756=LINE('',#1753,#1758);
#1758=VECTOR('',#1759,5.3086);
#1759=DIRECTION('',(0.0,-1.0,0.0));
#1750=ORIENTED_EDGE('',*,*,#1751,.F.);
#1763=CARTESIAN_POINT('',(-6.248,2.654,10.008));
#1762=VERTEX_POINT('',#1763);
#1761=EDGE_CURVE('',#1762,#1752,#1766,.T.);
#1766=LINE('',#1763,#1768);
#1768=VECTOR('',#1769,2.6035);
#1769=DIRECTION('',(1.0,0.0,0.0));
#1760=ORIENTED_EDGE('',*,*,#1761,.F.);
#1771=EDGE_CURVE('',#1744,#1762,#1776,.T.);
#1776=LINE('',#1745,#1778);
#1778=VECTOR('',#1779,5.3086);
#1779=DIRECTION('',(0.0,1.0,0.0));
#1770=ORIENTED_EDGE('',*,*,#1771,.F.);
#1780=STYLED_ITEM('',(#34),#1781);
#1781=ADVANCED_FACE('',(#1787),#1782,.T.);
#1782=PLANE('',#1783);
#1783=AXIS2_PLACEMENT_3D('',#1784,#1785,#1786);
#1784=CARTESIAN_POINT('',(-6.223,-2.654,0.025));
#1785=DIRECTION('',(0.0,0.0,1.0));
#1786=DIRECTION('',(0.,1.,0.));
#1787=FACE_OUTER_BOUND('',#1788,.T.);
#1788=EDGE_LOOP('',(#1789,#1799,#1809,#1819));
#1792=CARTESIAN_POINT('',(-3.645,-2.654,0.025));
#1791=VERTEX_POINT('',#1792);
#1794=CARTESIAN_POINT('',(-6.223,-2.654,0.025));
#1793=VERTEX_POINT('',#1794);
#1790=EDGE_CURVE('',#1791,#1793,#1795,.T.);
#1795=LINE('',#1792,#1797);
#1797=VECTOR('',#1798,2.5781);
#1798=DIRECTION('',(-1.0,0.0,0.0));
#1789=ORIENTED_EDGE('',*,*,#1790,.F.);
#1802=CARTESIAN_POINT('',(-3.645,2.654,0.025));
#1801=VERTEX_POINT('',#1802);
#1800=EDGE_CURVE('',#1801,#1791,#1805,.T.);
#1805=LINE('',#1802,#1807);
#1807=VECTOR('',#1808,5.3086);
#1808=DIRECTION('',(0.0,-1.0,0.0));
#1799=ORIENTED_EDGE('',*,*,#1800,.F.);
#1812=CARTESIAN_POINT('',(-6.223,2.654,0.025));
#1811=VERTEX_POINT('',#1812);
#1810=EDGE_CURVE('',#1811,#1801,#1815,.T.);
#1815=LINE('',#1812,#1817);
#1817=VECTOR('',#1818,2.5781);
#1818=DIRECTION('',(1.0,0.0,0.0));
#1809=ORIENTED_EDGE('',*,*,#1810,.F.);
#1820=EDGE_CURVE('',#1793,#1811,#1825,.T.);
#1825=LINE('',#1794,#1827);
#1827=VECTOR('',#1828,5.3086);
#1828=DIRECTION('',(0.0,1.0,0.0));
#1819=ORIENTED_EDGE('',*,*,#1820,.F.);
#1829=STYLED_ITEM('',(#34),#1830);
#1830=ADVANCED_FACE('',(#1836),#1831,.T.);
#1831=PLANE('',#1832);
#1832=AXIS2_PLACEMENT_3D('',#1833,#1834,#1835);
#1833=CARTESIAN_POINT('',(-6.248,2.654,0.0));
#1834=DIRECTION('',(-1.0,0.0,0.0));
#1835=DIRECTION('',(0.,0.,1.));
#1836=FACE_OUTER_BOUND('',#1837,.T.);
#1837=EDGE_LOOP('',(#1838,#1848,#1858,#1868));
#1841=CARTESIAN_POINT('',(-6.248,-2.654,0.0));
#1840=VERTEX_POINT('',#1841);
#1843=CARTESIAN_POINT('',(-6.248,2.654,0.0));
#1842=VERTEX_POINT('',#1843);
#1839=EDGE_CURVE('',#1840,#1842,#1844,.T.);
#1844=LINE('',#1841,#1846);
#1846=VECTOR('',#1847,5.3086);
#1847=DIRECTION('',(0.0,1.0,0.0));
#1838=ORIENTED_EDGE('',*,*,#1839,.F.);
#1849=EDGE_CURVE('',#1744,#1840,#1854,.T.);
#1854=LINE('',#1745,#1856);
#1856=VECTOR('',#1857,10.0076);
#1857=DIRECTION('',(0.0,0.0,-1.0));
#1848=ORIENTED_EDGE('',*,*,#1849,.F.);
#1858=ORIENTED_EDGE('',*,*,#1771,.T.);
#1869=EDGE_CURVE('',#1842,#1762,#1874,.T.);
#1874=LINE('',#1843,#1876);
#1876=VECTOR('',#1877,10.0076);
#1877=DIRECTION('',(0.0,0.0,1.0));
#1868=ORIENTED_EDGE('',*,*,#1869,.F.);
#1878=STYLED_ITEM('',(#34),#1879);
#1879=ADVANCED_FACE('',(#1885),#1880,.T.);
#1880=PLANE('',#1881);
#1881=AXIS2_PLACEMENT_3D('',#1882,#1883,#1884);
#1882=CARTESIAN_POINT('',(-3.645,-2.654,9.982));
#1883=DIRECTION('',(1.0,0.0,0.0));
#1884=DIRECTION('',(0.,0.,1.));
#1885=FACE_OUTER_BOUND('',#1886,.T.);
#1886=EDGE_LOOP('',(#1887,#1897,#1907,#1917));
#1890=CARTESIAN_POINT('',(-3.645,2.654,9.982));
#1889=VERTEX_POINT('',#1890);
#1892=CARTESIAN_POINT('',(-3.645,-2.654,9.982));
#1891=VERTEX_POINT('',#1892);
#1888=EDGE_CURVE('',#1889,#1891,#1893,.T.);
#1893=LINE('',#1890,#1895);
#1895=VECTOR('',#1896,5.3086);
#1896=DIRECTION('',(0.0,-1.0,0.0));
#1887=ORIENTED_EDGE('',*,*,#1888,.F.);
#1898=EDGE_CURVE('',#1752,#1889,#1903,.T.);
#1903=LINE('',#1753,#1905);
#1905=VECTOR('',#1906,0.0254);
#1906=DIRECTION('',(0.0,0.0,-1.0));
#1897=ORIENTED_EDGE('',*,*,#1898,.F.);
#1907=ORIENTED_EDGE('',*,*,#1751,.T.);
#1918=EDGE_CURVE('',#1891,#1742,#1923,.T.);
#1923=LINE('',#1892,#1925);
#1925=VECTOR('',#1926,0.0254);
#1926=DIRECTION('',(0.0,0.0,1.0));
#1917=ORIENTED_EDGE('',*,*,#1918,.F.);
#1927=STYLED_ITEM('',(#34),#1928);
#1928=ADVANCED_FACE('',(#1934),#1929,.T.);
#1929=PLANE('',#1930);
#1930=AXIS2_PLACEMENT_3D('',#1931,#1932,#1933);
#1931=CARTESIAN_POINT('',(-3.645,-2.654,0.0));
#1932=DIRECTION('',(1.0,0.0,0.0));
#1933=DIRECTION('',(0.,0.,1.));
#1934=FACE_OUTER_BOUND('',#1935,.T.);
#1935=EDGE_LOOP('',(#1936,#1946,#1956,#1966));
#1939=CARTESIAN_POINT('',(-3.645,2.654,0.0));
#1938=VERTEX_POINT('',#1939);
#1941=CARTESIAN_POINT('',(-3.645,-2.654,0.0));
#1940=VERTEX_POINT('',#1941);
#1937=EDGE_CURVE('',#1938,#1940,#1942,.T.);
#1942=LINE('',#1939,#1944);
#1944=VECTOR('',#1945,5.3086);
#1945=DIRECTION('',(0.0,-1.0,0.0));
#1936=ORIENTED_EDGE('',*,*,#1937,.F.);
#1947=EDGE_CURVE('',#1801,#1938,#1952,.T.);
#1952=LINE('',#1802,#1954);
#1954=VECTOR('',#1955,0.0254);
#1955=DIRECTION('',(0.0,0.0,-1.0));
#1946=ORIENTED_EDGE('',*,*,#1947,.F.);
#1956=ORIENTED_EDGE('',*,*,#1800,.T.);
#1967=EDGE_CURVE('',#1940,#1791,#1972,.T.);
#1972=LINE('',#1941,#1974);
#1974=VECTOR('',#1975,0.0254);
#1975=DIRECTION('',(0.0,0.0,1.0));
#1966=ORIENTED_EDGE('',*,*,#1967,.F.);
#1976=STYLED_ITEM('',(#34),#1977);
#1977=ADVANCED_FACE('',(#1983),#1978,.T.);
#1978=PLANE('',#1979);
#1979=AXIS2_PLACEMENT_3D('',#1980,#1981,#1982);
#1980=CARTESIAN_POINT('',(-6.223,-2.654,0.025));
#1981=DIRECTION('',(1.0,0.0,0.0));
#1982=DIRECTION('',(0.,0.,1.));
#1983=FACE_OUTER_BOUND('',#1984,.T.);
#1984=EDGE_LOOP('',(#1985,#1995,#2005,#2015));
#1985=ORIENTED_EDGE('',*,*,#1820,.T.);
#1998=CARTESIAN_POINT('',(-6.223,2.654,9.982));
#1997=VERTEX_POINT('',#1998);
#1996=EDGE_CURVE('',#1997,#1811,#2001,.T.);
#2001=LINE('',#1998,#2003);
#2003=VECTOR('',#2004,9.9568);
#2004=DIRECTION('',(0.0,0.0,-1.0));
#1995=ORIENTED_EDGE('',*,*,#1996,.F.);
#2008=CARTESIAN_POINT('',(-6.223,-2.654,9.982));
#2007=VERTEX_POINT('',#2008);
#2006=EDGE_CURVE('',#2007,#1997,#2011,.T.);
#2011=LINE('',#2008,#2013);
#2013=VECTOR('',#2014,5.3086);
#2014=DIRECTION('',(0.0,1.0,0.0));
#2005=ORIENTED_EDGE('',*,*,#2006,.F.);
#2016=EDGE_CURVE('',#1793,#2007,#2021,.T.);
#2021=LINE('',#1794,#2023);
#2023=VECTOR('',#2024,9.9568);
#2024=DIRECTION('',(0.0,0.0,1.0));
#2015=ORIENTED_EDGE('',*,*,#2016,.F.);
#2025=STYLED_ITEM('',(#34),#2026);
#2026=ADVANCED_FACE('',(#2032),#2027,.T.);
#2027=PLANE('',#2028);
#2028=AXIS2_PLACEMENT_3D('',#2029,#2030,#2031);
#2029=CARTESIAN_POINT('',(-6.223,2.654,9.982));
#2030=DIRECTION('',(0.0,0.0,-1.0));
#2031=DIRECTION('',(0.,1.,0.));
#2032=FACE_OUTER_BOUND('',#2033,.T.);
#2033=EDGE_LOOP('',(#2034,#2044,#2054,#2064));
#2035=EDGE_CURVE('',#1889,#1997,#2040,.T.);
#2040=LINE('',#1890,#2042);
#2042=VECTOR('',#2043,2.5781);
#2043=DIRECTION('',(-1.0,0.0,0.0));
#2034=ORIENTED_EDGE('',*,*,#2035,.F.);
#2044=ORIENTED_EDGE('',*,*,#1888,.T.);
#2055=EDGE_CURVE('',#2007,#1891,#2060,.T.);
#2060=LINE('',#2008,#2062);
#2062=VECTOR('',#2063,2.5781);
#2063=DIRECTION('',(1.0,0.0,0.0));
#2054=ORIENTED_EDGE('',*,*,#2055,.F.);
#2064=ORIENTED_EDGE('',*,*,#2006,.T.);
#2074=STYLED_ITEM('',(#34),#2075);
#2075=ADVANCED_FACE('',(#2081),#2076,.T.);
#2076=PLANE('',#2077);
#2077=AXIS2_PLACEMENT_3D('',#2078,#2079,#2080);
#2078=CARTESIAN_POINT('',(-6.248,2.654,0.0));
#2079=DIRECTION('',(0.0,0.0,-1.0));
#2080=DIRECTION('',(0.,1.,0.));
#2081=FACE_OUTER_BOUND('',#2082,.T.);
#2082=EDGE_LOOP('',(#2083,#2093,#2103,#2113));
#2084=EDGE_CURVE('',#1938,#1842,#2089,.T.);
#2089=LINE('',#1939,#2091);
#2091=VECTOR('',#2092,2.6035);
#2092=DIRECTION('',(-1.0,0.0,0.0));
#2083=ORIENTED_EDGE('',*,*,#2084,.F.);
#2093=ORIENTED_EDGE('',*,*,#1937,.T.);
#2104=EDGE_CURVE('',#1840,#1940,#2109,.T.);
#2109=LINE('',#1841,#2111);
#2111=VECTOR('',#2112,2.6035);
#2112=DIRECTION('',(1.0,0.0,0.0));
#2103=ORIENTED_EDGE('',*,*,#2104,.F.);
#2113=ORIENTED_EDGE('',*,*,#1839,.T.);
#2123=STYLED_ITEM('',(#34),#2124);
#2124=ADVANCED_FACE('',(#2130),#2125,.T.);
#2125=PLANE('',#2126);
#2126=AXIS2_PLACEMENT_3D('',#2127,#2128,#2129);
#2127=CARTESIAN_POINT('',(-6.248,-2.654,0.0));
#2128=DIRECTION('',(0.0,-1.0,0.0));
#2129=DIRECTION('',(0.,0.,1.));
#2130=FACE_OUTER_BOUND('',#2131,.T.);
#2131=EDGE_LOOP('',(#2132,#2142,#2152,#2162,#2172,#2182,#2192,#2202));
#2132=ORIENTED_EDGE('',*,*,#2104,.T.);
#2142=ORIENTED_EDGE('',*,*,#1967,.T.);
#2152=ORIENTED_EDGE('',*,*,#1790,.T.);
#2162=ORIENTED_EDGE('',*,*,#2016,.T.);
#2172=ORIENTED_EDGE('',*,*,#2055,.T.);
#2182=ORIENTED_EDGE('',*,*,#1918,.T.);
#2192=ORIENTED_EDGE('',*,*,#1741,.T.);
#2202=ORIENTED_EDGE('',*,*,#1849,.T.);
#2212=STYLED_ITEM('',(#34),#2213);
#2213=ADVANCED_FACE('',(#2219),#2214,.T.);
#2214=PLANE('',#2215);
#2215=AXIS2_PLACEMENT_3D('',#2216,#2217,#2218);
#2216=CARTESIAN_POINT('',(-3.645,2.654,0.0));
#2217=DIRECTION('',(0.0,1.0,0.0));
#2218=DIRECTION('',(0.,0.,1.));
#2219=FACE_OUTER_BOUND('',#2220,.T.);
#2220=EDGE_LOOP('',(#2221,#2231,#2241,#2251,#2261,#2271,#2281,#2291));
#2221=ORIENTED_EDGE('',*,*,#2084,.T.);
#2231=ORIENTED_EDGE('',*,*,#1869,.T.);
#2241=ORIENTED_EDGE('',*,*,#1761,.T.);
#2251=ORIENTED_EDGE('',*,*,#1898,.T.);
#2261=ORIENTED_EDGE('',*,*,#2035,.T.);
#2271=ORIENTED_EDGE('',*,*,#1996,.T.);
#2281=ORIENTED_EDGE('',*,*,#1810,.T.);
#2291=ORIENTED_EDGE('',*,*,#1947,.T.);
ENDSEC;
END-ISO-10303-21;
